<?xml version="1.0" encoding="utf-8" ?>
<svg baseProfile="full" height="180px" version="1.1" width="180px" xmlns="http://www.w3.org/2000/svg" xmlns:ev="http://www.w3.org/2001/xml-events" xmlns:xlink="http://www.w3.org/1999/xlink"><defs /><path d="M 114.00,93.00 L 113.00,93.00 L 112.00,92.00 L 112.00,92.00 L 111.00,91.00 L 111.00,91.00 L 110.00,91.00 L 109.00,90.00 L 109.00,90.00 L 108.00,89.00 L 108.00,89.00 L 107.00,88.00 L 107.00,88.00 L 106.00,88.00 L 105.00,87.00 L 105.00,87.00 L 104.00,86.00 L 104.00,86.00 L 103.00,86.00 L 102.00,85.00 L 102.00,85.00 L 101.00,85.00 L 100.00,84.00 L 100.00,84.00 L 99.00,84.00 L 98.00,83.00 L 98.00,83.00 L 97.00,83.00 L 96.00,82.00 L 96.00,82.00 L 95.00,82.00 L 94.00,82.00 L 93.00,81.00 L 93.00,81.00 L 92.00,81.00 L 91.00,80.00 L 91.00,80.00 L 90.00,80.00 L 89.00,79.00 L 89.00,79.00 L 88.00,79.00 L 87.00,79.00 L 86.00,78.00 L 86.00,78.00 L 85.00,78.00 L 84.00,78.00 L 83.00,77.00 L 83.00,77.00 L 82.00,77.00 L 81.00,76.00 L 81.00,76.00 L 80.00,76.00 L 79.00,75.00 L 79.00,75.00 L 78.00,75.00 L 77.00,75.00 L 76.00,74.00 L 76.00,74.00 L 75.00,74.00 L 74.00,73.00 L 74.00,73.00 L 73.00,73.00 L 72.00,72.00 L 72.00,72.00 L 71.00,72.00 L 70.00,72.00 L 69.00,71.00 L 69.00,71.00 L 68.00,71.00 L 67.00,70.00 L 67.00,70.00 L 66.00,70.00 L 65.00,69.00 L 65.00,69.00 L 64.00,69.00 L 63.00,68.00 L 63.00,68.00 L 62.00,68.00 L 61.00,68.00 L 60.00,67.00 L 60.00,67.00 L 59.00,67.00 L 58.00,66.00 L 58.00,66.00 L 57.00,66.00 L 56.00,65.00 L 56.00,65.00 L 55.00,65.00 L 54.00,65.00 L 53.00,64.00 L 53.00,64.00 L 52.00,64.00 L 51.00,64.00 L 50.00,63.00 L 50.00,62.00 L 51.00,61.00 L 51.00,61.00 L 52.00,60.00 L 52.00,60.00 L 53.00,59.00 L 53.00,59.00 L 54.00,58.00 L 55.00,58.00 L 55.00,58.00 L 56.00,57.00 L 56.00,57.00 L 57.00,56.00 L 58.00,56.00 L 58.00,56.00 L 59.00,55.00 L 59.00,55.00 L 60.00,54.00 L 61.00,54.00 L 61.00,54.00 L 62.00,53.00 L 63.00,53.00 L 63.00,53.00 L 64.00,52.00 L 65.00,52.00 L 65.00,52.00 L 66.00,51.00 L 67.00,51.00 L 67.00,51.00 L 68.00,50.00 L 69.00,50.00 L 70.00,50.00 L 70.00,50.00 L 71.00,49.00 L 72.00,49.00 L 73.00,49.00 L 73.00,49.00 L 74.00,48.00 L 75.00,48.00 L 76.00,48.00 L 76.00,48.00 L 77.00,47.00 L 78.00,47.00 L 79.00,47.00 L 80.00,47.00 L 80.00,47.00 L 81.00,46.00 L 82.00,46.00 L 83.00,46.00 L 84.00,46.00 L 85.00,46.00 L 86.00,46.00 L 87.00,46.00 L 88.00,46.00 L 89.00,46.00 L 90.00,46.00 L 91.00,46.00 L 92.00,46.00 L 93.00,46.00 L 94.00,46.00 L 95.00,46.00 L 96.00,46.00 L 97.00,46.00 L 98.00,46.00 L 99.00,46.00 L 100.00,46.00 L 101.00,46.00 L 102.00,46.00 L 103.00,46.00 L 104.00,46.00 L 105.00,47.00 L 105.00,47.00 L 106.00,47.00 L 107.00,47.00 L 108.00,47.00 L 109.00,47.00 L 110.00,48.00 L 110.00,48.00 L 111.00,48.00 L 112.00,48.00 L 113.00,49.00 L 113.00,49.00 L 114.00,49.00 L 115.00,50.00 L 115.00,50.00 L 116.00,51.00 L 115.00,52.00 L 115.00,52.00 L 115.00,53.00 L 115.00,54.00 L 115.00,55.00 L 115.00,56.00 L 115.00,57.00 L 115.00,58.00 L 115.00,59.00 L 115.00,60.00 L 115.00,61.00 L 115.00,62.00 L 115.00,63.00 L 115.00,64.00 L 115.00,65.00 L 115.00,66.00 L 115.00,67.00 L 115.00,68.00 L 115.00,69.00 L 115.00,70.00 L 115.00,71.00 L 115.00,72.00 L 115.00,73.00 L 115.00,74.00 L 115.00,75.00 L 115.00,76.00 L 115.00,77.00 L 115.00,78.00 L 115.00,79.00 L 115.00,80.00 L 115.00,81.00 L 115.00,82.00 L 115.00,83.00 L 115.00,84.00 L 115.00,85.00 L 115.00,86.00 L 115.00,87.00 L 115.00,88.00 L 115.00,89.00 L 115.00,90.00 L 115.00,91.00 L 115.00,92.00 L 114.00,93.00 Z" fill="white" /><path d="M 120.00,124.00 L 119.00,123.00 L 119.00,123.00 L 118.00,122.00 L 118.00,121.00 L 119.00,120.00 L 119.00,120.00 L 119.00,119.00 L 119.00,118.00 L 119.00,117.00 L 119.00,116.00 L 119.00,115.00 L 120.00,114.00 L 120.00,114.00 L 120.00,113.00 L 120.00,112.00 L 120.00,111.00 L 120.00,110.00 L 120.00,109.00 L 120.00,108.00 L 120.00,107.00 L 120.00,106.00 L 120.00,105.00 L 120.00,104.00 L 120.00,103.00 L 120.00,102.00 L 120.00,101.00 L 120.00,100.00 L 120.00,99.00 L 120.00,98.00 L 120.00,97.00 L 120.00,96.00 L 120.00,95.00 L 120.00,94.00 L 120.00,93.00 L 120.00,92.00 L 120.00,91.00 L 120.00,90.00 L 120.00,89.00 L 120.00,88.00 L 120.00,87.00 L 120.00,86.00 L 120.00,85.00 L 120.00,84.00 L 120.00,83.00 L 120.00,82.00 L 120.00,81.00 L 120.00,80.00 L 120.00,79.00 L 120.00,78.00 L 120.00,77.00 L 120.00,76.00 L 120.00,75.00 L 120.00,74.00 L 120.00,73.00 L 120.00,72.00 L 120.00,71.00 L 120.00,70.00 L 120.00,69.00 L 120.00,68.00 L 120.00,67.00 L 120.00,66.00 L 120.00,65.00 L 120.00,64.00 L 120.00,63.00 L 120.00,62.00 L 120.00,61.00 L 120.00,60.00 L 120.00,59.00 L 120.00,58.00 L 120.00,57.00 L 120.00,56.00 L 120.00,55.00 L 120.00,54.00 L 121.00,53.00 L 122.00,53.00 L 123.00,53.00 L 124.00,53.00 L 125.00,54.00 L 125.00,54.00 L 126.00,55.00 L 126.00,55.00 L 127.00,55.00 L 128.00,56.00 L 128.00,56.00 L 129.00,57.00 L 129.00,57.00 L 130.00,57.00 L 131.00,58.00 L 131.00,58.00 L 132.00,59.00 L 132.00,59.00 L 133.00,59.00 L 134.00,60.00 L 134.00,60.00 L 135.00,61.00 L 135.00,61.00 L 136.00,62.00 L 136.00,62.00 L 137.00,63.00 L 137.00,63.00 L 138.00,64.00 L 138.00,64.00 L 139.00,65.00 L 139.00,65.00 L 140.00,66.00 L 140.00,66.00 L 141.00,67.00 L 141.00,67.00 L 142.00,68.00 L 142.00,68.00 L 143.00,69.00 L 143.00,69.00 L 144.00,70.00 L 144.00,71.00 L 144.00,71.00 L 145.00,72.00 L 145.00,72.00 L 146.00,73.00 L 146.00,73.00 L 147.00,74.00 L 147.00,75.00 L 147.00,75.00 L 148.00,76.00 L 148.00,76.00 L 149.00,77.00 L 149.00,78.00 L 149.00,78.00 L 150.00,79.00 L 150.00,80.00 L 150.00,80.00 L 151.00,81.00 L 151.00,82.00 L 151.00,82.00 L 152.00,83.00 L 152.00,84.00 L 152.00,84.00 L 153.00,85.00 L 153.00,86.00 L 153.00,87.00 L 153.00,87.00 L 154.00,88.00 L 154.00,89.00 L 154.00,90.00 L 154.00,90.00 L 155.00,91.00 L 155.00,92.00 L 155.00,93.00 L 155.00,93.00 L 156.00,94.00 L 156.00,95.00 L 156.00,96.00 L 156.00,97.00 L 156.00,97.00 L 157.00,98.00 L 157.00,99.00 L 157.00,100.00 L 157.00,101.00 L 157.00,102.00 L 156.00,103.00 L 156.00,103.00 L 155.00,104.00 L 154.00,104.00 L 154.00,104.00 L 153.00,105.00 L 152.00,105.00 L 152.00,105.00 L 151.00,106.00 L 150.00,106.00 L 150.00,106.00 L 149.00,107.00 L 149.00,107.00 L 148.00,108.00 L 147.00,108.00 L 147.00,108.00 L 146.00,109.00 L 145.00,109.00 L 145.00,109.00 L 144.00,110.00 L 143.00,110.00 L 143.00,110.00 L 142.00,111.00 L 142.00,111.00 L 141.00,112.00 L 140.00,112.00 L 140.00,112.00 L 139.00,113.00 L 139.00,113.00 L 138.00,114.00 L 137.00,114.00 L 137.00,114.00 L 136.00,115.00 L 135.00,115.00 L 135.00,115.00 L 134.00,116.00 L 134.00,116.00 L 133.00,117.00 L 132.00,117.00 L 132.00,117.00 L 131.00,118.00 L 130.00,118.00 L 130.00,118.00 L 129.00,119.00 L 128.00,119.00 L 128.00,119.00 L 127.00,120.00 L 127.00,120.00 L 126.00,121.00 L 125.00,121.00 L 125.00,121.00 L 124.00,122.00 L 123.00,122.00 L 123.00,122.00 L 122.00,123.00 L 121.00,123.00 L 121.00,123.00 L 120.00,124.00 Z" fill="white" /><path d="M 31.00,122.00 L 30.00,122.00 L 29.00,121.00 L 29.00,120.00 L 29.00,119.00 L 29.00,118.00 L 29.00,118.00 L 28.00,117.00 L 28.00,116.00 L 28.00,115.00 L 28.00,114.00 L 28.00,113.00 L 28.00,112.00 L 28.00,111.00 L 28.00,110.00 L 28.00,109.00 L 28.00,108.00 L 28.00,107.00 L 28.00,106.00 L 28.00,105.00 L 28.00,104.00 L 28.00,103.00 L 28.00,102.00 L 29.00,101.00 L 29.00,101.00 L 29.00,100.00 L 29.00,99.00 L 29.00,98.00 L 29.00,97.00 L 30.00,96.00 L 30.00,96.00 L 30.00,95.00 L 30.00,94.00 L 30.00,93.00 L 30.00,92.00 L 31.00,91.00 L 31.00,91.00 L 31.00,90.00 L 31.00,89.00 L 32.00,88.00 L 32.00,88.00 L 32.00,87.00 L 33.00,86.00 L 33.00,86.00 L 33.00,85.00 L 33.00,84.00 L 34.00,83.00 L 34.00,83.00 L 34.00,82.00 L 35.00,81.00 L 35.00,81.00 L 35.00,80.00 L 36.00,79.00 L 36.00,79.00 L 36.00,78.00 L 37.00,77.00 L 37.00,77.00 L 38.00,76.00 L 38.00,76.00 L 38.00,75.00 L 39.00,74.00 L 39.00,74.00 L 40.00,73.00 L 40.00,73.00 L 41.00,72.00 L 41.00,72.00 L 41.00,71.00 L 42.00,70.00 L 42.00,70.00 L 43.00,69.00 L 43.00,69.00 L 44.00,68.00 L 44.00,68.00 L 45.00,67.00 L 45.00,67.00 L 46.00,66.00 L 47.00,66.00 L 48.00,66.00 L 49.00,67.00 L 49.00,67.00 L 50.00,67.00 L 51.00,68.00 L 51.00,68.00 L 52.00,68.00 L 53.00,69.00 L 53.00,69.00 L 54.00,69.00 L 55.00,69.00 L 56.00,70.00 L 56.00,70.00 L 57.00,70.00 L 58.00,71.00 L 58.00,71.00 L 59.00,71.00 L 60.00,72.00 L 60.00,72.00 L 61.00,72.00 L 62.00,72.00 L 63.00,73.00 L 63.00,73.00 L 64.00,73.00 L 65.00,73.00 L 66.00,74.00 L 66.00,74.00 L 67.00,74.00 L 68.00,75.00 L 68.00,75.00 L 69.00,75.00 L 70.00,76.00 L 70.00,76.00 L 71.00,76.00 L 72.00,77.00 L 72.00,77.00 L 73.00,77.00 L 74.00,77.00 L 75.00,78.00 L 75.00,78.00 L 76.00,78.00 L 77.00,79.00 L 77.00,79.00 L 78.00,79.00 L 79.00,80.00 L 79.00,80.00 L 80.00,80.00 L 81.00,80.00 L 82.00,81.00 L 82.00,81.00 L 83.00,81.00 L 84.00,82.00 L 84.00,82.00 L 85.00,83.00 L 84.00,84.00 L 84.00,84.00 L 83.00,85.00 L 83.00,85.00 L 82.00,86.00 L 81.00,86.00 L 81.00,86.00 L 80.00,87.00 L 80.00,87.00 L 79.00,88.00 L 79.00,88.00 L 78.00,89.00 L 77.00,89.00 L 77.00,89.00 L 76.00,90.00 L 76.00,90.00 L 75.00,91.00 L 75.00,91.00 L 74.00,92.00 L 73.00,92.00 L 73.00,92.00 L 72.00,93.00 L 72.00,93.00 L 71.00,94.00 L 71.00,94.00 L 70.00,95.00 L 69.00,95.00 L 69.00,95.00 L 68.00,96.00 L 68.00,96.00 L 67.00,97.00 L 66.00,97.00 L 66.00,97.00 L 65.00,98.00 L 65.00,98.00 L 64.00,99.00 L 63.00,99.00 L 63.00,99.00 L 62.00,100.00 L 62.00,100.00 L 61.00,101.00 L 60.00,101.00 L 60.00,101.00 L 59.00,102.00 L 59.00,102.00 L 58.00,103.00 L 58.00,103.00 L 57.00,104.00 L 56.00,104.00 L 56.00,104.00 L 55.00,105.00 L 55.00,105.00 L 54.00,106.00 L 53.00,106.00 L 53.00,106.00 L 52.00,107.00 L 52.00,107.00 L 51.00,108.00 L 51.00,108.00 L 50.00,109.00 L 49.00,109.00 L 49.00,109.00 L 48.00,110.00 L 48.00,110.00 L 47.00,111.00 L 46.00,111.00 L 46.00,111.00 L 45.00,112.00 L 45.00,112.00 L 44.00,113.00 L 43.00,113.00 L 43.00,113.00 L 42.00,114.00 L 42.00,114.00 L 41.00,115.00 L 41.00,115.00 L 40.00,116.00 L 39.00,116.00 L 39.00,116.00 L 38.00,117.00 L 38.00,117.00 L 37.00,118.00 L 36.00,118.00 L 36.00,118.00 L 35.00,119.00 L 35.00,119.00 L 34.00,120.00 L 34.00,120.00 L 33.00,121.00 L 32.00,121.00 L 32.00,121.00 L 31.00,122.00 Z" fill="white" /><path d="M 66.00,170.00 L 65.00,170.00 L 64.00,169.00 L 64.00,169.00 L 63.00,169.00 L 62.00,168.00 L 62.00,168.00 L 61.00,168.00 L 60.00,167.00 L 60.00,167.00 L 59.00,166.00 L 59.00,166.00 L 58.00,166.00 L 57.00,165.00 L 57.00,165.00 L 56.00,165.00 L 55.00,164.00 L 55.00,164.00 L 54.00,163.00 L 54.00,163.00 L 53.00,162.00 L 53.00,162.00 L 52.00,162.00 L 51.00,161.00 L 51.00,161.00 L 50.00,160.00 L 50.00,160.00 L 49.00,159.00 L 49.00,159.00 L 48.00,158.00 L 48.00,158.00 L 47.00,157.00 L 47.00,157.00 L 46.00,156.00 L 46.00,156.00 L 45.00,155.00 L 45.00,155.00 L 44.00,154.00 L 44.00,154.00 L 43.00,153.00 L 43.00,153.00 L 42.00,152.00 L 42.00,151.00 L 42.00,151.00 L 41.00,150.00 L 41.00,150.00 L 40.00,149.00 L 40.00,148.00 L 40.00,148.00 L 39.00,147.00 L 39.00,147.00 L 38.00,146.00 L 38.00,145.00 L 38.00,145.00 L 37.00,144.00 L 37.00,144.00 L 36.00,143.00 L 36.00,142.00 L 36.00,142.00 L 35.00,141.00 L 35.00,140.00 L 35.00,140.00 L 34.00,139.00 L 34.00,138.00 L 34.00,138.00 L 33.00,137.00 L 33.00,136.00 L 33.00,135.00 L 33.00,135.00 L 32.00,134.00 L 32.00,133.00 L 32.00,133.00 L 31.00,132.00 L 31.00,131.00 L 31.00,130.00 L 31.00,130.00 L 30.00,129.00 L 30.00,128.00 L 30.00,127.00 L 31.00,126.00 L 32.00,126.00 L 32.00,126.00 L 33.00,125.00 L 33.00,125.00 L 34.00,124.00 L 35.00,124.00 L 35.00,124.00 L 36.00,123.00 L 36.00,123.00 L 37.00,122.00 L 37.00,122.00 L 38.00,121.00 L 39.00,121.00 L 39.00,121.00 L 40.00,120.00 L 40.00,120.00 L 41.00,119.00 L 42.00,119.00 L 42.00,119.00 L 43.00,118.00 L 43.00,118.00 L 44.00,117.00 L 44.00,117.00 L 45.00,116.00 L 46.00,116.00 L 46.00,116.00 L 47.00,115.00 L 47.00,115.00 L 48.00,114.00 L 49.00,114.00 L 49.00,114.00 L 50.00,113.00 L 50.00,113.00 L 51.00,112.00 L 52.00,112.00 L 52.00,112.00 L 53.00,111.00 L 53.00,111.00 L 54.00,110.00 L 55.00,110.00 L 55.00,110.00 L 56.00,109.00 L 56.00,109.00 L 57.00,108.00 L 57.00,108.00 L 58.00,107.00 L 59.00,107.00 L 59.00,107.00 L 60.00,106.00 L 61.00,106.00 L 61.00,106.00 L 62.00,105.00 L 62.00,105.00 L 63.00,104.00 L 63.00,104.00 L 64.00,103.00 L 65.00,103.00 L 66.00,103.00 L 67.00,104.00 L 67.00,105.00 L 67.00,106.00 L 67.00,107.00 L 67.00,108.00 L 67.00,109.00 L 67.00,110.00 L 67.00,111.00 L 67.00,112.00 L 67.00,113.00 L 67.00,114.00 L 67.00,115.00 L 67.00,116.00 L 67.00,117.00 L 67.00,118.00 L 67.00,119.00 L 67.00,120.00 L 67.00,121.00 L 67.00,122.00 L 67.00,123.00 L 67.00,124.00 L 67.00,125.00 L 67.00,126.00 L 67.00,127.00 L 67.00,128.00 L 67.00,129.00 L 67.00,130.00 L 67.00,131.00 L 67.00,132.00 L 67.00,133.00 L 67.00,134.00 L 67.00,135.00 L 67.00,136.00 L 67.00,137.00 L 67.00,138.00 L 67.00,139.00 L 67.00,140.00 L 67.00,141.00 L 67.00,142.00 L 67.00,143.00 L 67.00,144.00 L 67.00,145.00 L 67.00,146.00 L 67.00,147.00 L 67.00,148.00 L 67.00,149.00 L 67.00,150.00 L 67.00,151.00 L 67.00,152.00 L 67.00,153.00 L 67.00,154.00 L 67.00,155.00 L 67.00,156.00 L 67.00,156.00 L 68.00,157.00 L 68.00,158.00 L 68.00,159.00 L 68.00,160.00 L 68.00,161.00 L 68.00,162.00 L 68.00,163.00 L 68.00,164.00 L 68.00,165.00 L 68.00,166.00 L 68.00,167.00 L 67.00,168.00 L 67.00,168.00 L 67.00,169.00 L 66.00,170.00 Z" fill="white" /><path d="M 135.00,160.00 L 134.00,160.00 L 133.00,160.00 L 132.00,160.00 L 131.00,159.00 L 131.00,159.00 L 130.00,159.00 L 129.00,158.00 L 129.00,158.00 L 128.00,157.00 L 128.00,157.00 L 127.00,156.00 L 127.00,156.00 L 126.00,156.00 L 125.00,155.00 L 125.00,155.00 L 124.00,155.00 L 123.00,154.00 L 123.00,154.00 L 122.00,154.00 L 121.00,153.00 L 121.00,153.00 L 120.00,152.00 L 120.00,152.00 L 119.00,152.00 L 118.00,152.00 L 117.00,151.00 L 117.00,151.00 L 116.00,151.00 L 115.00,150.00 L 115.00,150.00 L 114.00,149.00 L 114.00,149.00 L 113.00,149.00 L 112.00,148.00 L 112.00,148.00 L 111.00,148.00 L 110.00,147.00 L 110.00,147.00 L 109.00,147.00 L 108.00,146.00 L 108.00,146.00 L 107.00,145.00 L 107.00,145.00 L 106.00,145.00 L 105.00,144.00 L 105.00,144.00 L 104.00,144.00 L 103.00,143.00 L 103.00,143.00 L 102.00,142.00 L 102.00,142.00 L 101.00,142.00 L 100.00,141.00 L 100.00,141.00 L 99.00,141.00 L 98.00,141.00 L 97.00,140.00 L 98.00,139.00 L 98.00,139.00 L 99.00,138.00 L 100.00,138.00 L 100.00,138.00 L 101.00,137.00 L 102.00,137.00 L 103.00,137.00 L 103.00,137.00 L 104.00,136.00 L 105.00,136.00 L 105.00,136.00 L 106.00,135.00 L 106.00,135.00 L 107.00,134.00 L 108.00,134.00 L 108.00,134.00 L 109.00,133.00 L 110.00,133.00 L 110.00,133.00 L 111.00,132.00 L 112.00,132.00 L 112.00,132.00 L 113.00,131.00 L 114.00,131.00 L 114.00,131.00 L 115.00,130.00 L 116.00,130.00 L 116.00,130.00 L 117.00,129.00 L 118.00,129.00 L 118.00,129.00 L 119.00,128.00 L 119.00,128.00 L 120.00,127.00 L 121.00,127.00 L 121.00,127.00 L 122.00,126.00 L 123.00,126.00 L 123.00,126.00 L 124.00,125.00 L 125.00,125.00 L 125.00,125.00 L 126.00,124.00 L 127.00,124.00 L 127.00,124.00 L 128.00,123.00 L 129.00,123.00 L 129.00,123.00 L 130.00,122.00 L 131.00,122.00 L 131.00,122.00 L 132.00,121.00 L 133.00,121.00 L 133.00,121.00 L 134.00,120.00 L 134.00,120.00 L 135.00,119.00 L 136.00,119.00 L 136.00,119.00 L 137.00,118.00 L 138.00,118.00 L 138.00,118.00 L 139.00,117.00 L 140.00,117.00 L 140.00,117.00 L 141.00,116.00 L 142.00,116.00 L 142.00,116.00 L 143.00,115.00 L 143.00,115.00 L 144.00,114.00 L 145.00,114.00 L 145.00,114.00 L 146.00,113.00 L 147.00,113.00 L 147.00,113.00 L 148.00,112.00 L 149.00,112.00 L 149.00,112.00 L 150.00,111.00 L 151.00,111.00 L 151.00,111.00 L 152.00,110.00 L 153.00,110.00 L 153.00,110.00 L 154.00,109.00 L 154.00,109.00 L 155.00,108.00 L 156.00,108.00 L 157.00,108.00 L 158.00,109.00 L 158.00,110.00 L 158.00,111.00 L 158.00,112.00 L 158.00,113.00 L 158.00,114.00 L 158.00,115.00 L 158.00,116.00 L 158.00,117.00 L 157.00,118.00 L 157.00,118.00 L 157.00,119.00 L 157.00,120.00 L 157.00,121.00 L 157.00,122.00 L 157.00,123.00 L 157.00,124.00 L 156.00,125.00 L 156.00,125.00 L 156.00,126.00 L 156.00,127.00 L 156.00,128.00 L 156.00,129.00 L 155.00,130.00 L 155.00,130.00 L 155.00,131.00 L 154.00,132.00 L 154.00,132.00 L 154.00,133.00 L 154.00,134.00 L 153.00,135.00 L 153.00,135.00 L 153.00,136.00 L 153.00,137.00 L 152.00,138.00 L 152.00,138.00 L 151.00,139.00 L 151.00,139.00 L 151.00,140.00 L 150.00,141.00 L 150.00,141.00 L 150.00,142.00 L 150.00,143.00 L 149.00,144.00 L 149.00,144.00 L 148.00,145.00 L 148.00,145.00 L 148.00,146.00 L 147.00,147.00 L 147.00,147.00 L 146.00,148.00 L 146.00,148.00 L 145.00,149.00 L 145.00,149.00 L 145.00,150.00 L 144.00,151.00 L 144.00,151.00 L 143.00,152.00 L 143.00,152.00 L 142.00,153.00 L 142.00,153.00 L 142.00,154.00 L 141.00,155.00 L 140.00,155.00 L 140.00,155.00 L 139.00,156.00 L 139.00,156.00 L 139.00,157.00 L 138.00,158.00 L 138.00,158.00 L 137.00,159.00 L 136.00,159.00 L 136.00,159.00 L 135.00,160.00 Z" fill="white" /><path d="M 92.00,177.00 L 91.00,176.00 L 91.00,176.00 L 90.00,176.00 L 89.00,176.00 L 88.00,176.00 L 87.00,176.00 L 86.00,176.00 L 85.00,176.00 L 84.00,176.00 L 83.00,176.00 L 82.00,175.00 L 82.00,175.00 L 81.00,175.00 L 80.00,175.00 L 79.00,175.00 L 78.00,175.00 L 77.00,174.00 L 77.00,174.00 L 76.00,174.00 L 75.00,174.00 L 74.00,174.00 L 73.00,173.00 L 73.00,173.00 L 72.00,172.00 L 72.00,172.00 L 71.00,171.00 L 71.00,170.00 L 71.00,169.00 L 71.00,168.00 L 71.00,167.00 L 71.00,166.00 L 71.00,165.00 L 71.00,164.00 L 71.00,163.00 L 71.00,162.00 L 71.00,161.00 L 71.00,160.00 L 71.00,159.00 L 71.00,158.00 L 71.00,157.00 L 71.00,156.00 L 71.00,155.00 L 71.00,154.00 L 71.00,153.00 L 71.00,152.00 L 71.00,151.00 L 71.00,150.00 L 71.00,149.00 L 71.00,148.00 L 71.00,147.00 L 71.00,146.00 L 71.00,145.00 L 71.00,144.00 L 71.00,143.00 L 71.00,142.00 L 71.00,141.00 L 71.00,140.00 L 71.00,139.00 L 71.00,138.00 L 71.00,137.00 L 71.00,136.00 L 71.00,135.00 L 71.00,134.00 L 71.00,133.00 L 71.00,132.00 L 71.00,131.00 L 71.00,130.00 L 72.00,129.00 L 73.00,129.00 L 74.00,130.00 L 74.00,130.00 L 75.00,131.00 L 75.00,131.00 L 76.00,132.00 L 76.00,132.00 L 77.00,133.00 L 77.00,133.00 L 78.00,133.00 L 79.00,134.00 L 79.00,134.00 L 80.00,134.00 L 81.00,135.00 L 81.00,135.00 L 82.00,136.00 L 82.00,136.00 L 83.00,137.00 L 83.00,137.00 L 84.00,137.00 L 85.00,138.00 L 85.00,138.00 L 86.00,138.00 L 87.00,139.00 L 87.00,139.00 L 88.00,140.00 L 88.00,140.00 L 89.00,140.00 L 90.00,141.00 L 90.00,141.00 L 91.00,141.00 L 92.00,142.00 L 92.00,142.00 L 93.00,142.00 L 94.00,143.00 L 94.00,143.00 L 95.00,143.00 L 96.00,144.00 L 96.00,144.00 L 97.00,145.00 L 97.00,145.00 L 98.00,145.00 L 99.00,146.00 L 99.00,146.00 L 100.00,146.00 L 101.00,147.00 L 101.00,147.00 L 102.00,147.00 L 103.00,148.00 L 103.00,148.00 L 104.00,149.00 L 104.00,149.00 L 105.00,149.00 L 106.00,150.00 L 106.00,150.00 L 107.00,150.00 L 108.00,151.00 L 108.00,151.00 L 109.00,151.00 L 110.00,152.00 L 110.00,152.00 L 111.00,152.00 L 112.00,153.00 L 112.00,153.00 L 113.00,153.00 L 114.00,154.00 L 114.00,154.00 L 115.00,154.00 L 116.00,155.00 L 116.00,155.00 L 117.00,155.00 L 118.00,156.00 L 118.00,156.00 L 119.00,156.00 L 120.00,157.00 L 120.00,157.00 L 121.00,157.00 L 122.00,158.00 L 122.00,158.00 L 123.00,159.00 L 123.00,159.00 L 124.00,159.00 L 125.00,160.00 L 125.00,160.00 L 126.00,160.00 L 127.00,161.00 L 127.00,161.00 L 128.00,161.00 L 129.00,162.00 L 129.00,162.00 L 130.00,163.00 L 130.00,164.00 L 129.00,165.00 L 129.00,165.00 L 128.00,166.00 L 127.00,166.00 L 127.00,166.00 L 126.00,167.00 L 126.00,167.00 L 125.00,168.00 L 124.00,168.00 L 124.00,168.00 L 123.00,169.00 L 122.00,169.00 L 122.00,169.00 L 121.00,170.00 L 120.00,170.00 L 120.00,170.00 L 119.00,171.00 L 118.00,171.00 L 117.00,171.00 L 117.00,171.00 L 116.00,172.00 L 115.00,172.00 L 115.00,172.00 L 114.00,173.00 L 113.00,173.00 L 112.00,173.00 L 112.00,173.00 L 111.00,174.00 L 110.00,174.00 L 109.00,174.00 L 109.00,174.00 L 108.00,175.00 L 107.00,175.00 L 106.00,175.00 L 105.00,175.00 L 104.00,175.00 L 103.00,175.00 L 103.00,175.00 L 102.00,176.00 L 101.00,176.00 L 100.00,176.00 L 99.00,176.00 L 98.00,176.00 L 97.00,176.00 L 96.00,176.00 L 95.00,176.00 L 94.00,176.00 L 93.00,176.00 L 93.00,176.00 L 92.00,177.00 Z" fill="white" /></svg>